<?xml version="1.0" encoding="UTF-8"?>
<svg id="Layer_1" data-name="Layer 1" xmlns="http://www.w3.org/2000/svg" viewBox="0 0 864 153.2433">
  <path d="M80.9683,1.886C39.7581,1.886,9.8477,33.7125,9.8477,77.5628c0,18.426,5.2158,35.0984,15.0807,48.382l-1.9081,2.2726c-2.136,2.5433-5.2651,4.0018-8.5864,4.0018H0v19.7734H14.4338c9.1777,0,17.8268-4.0312,23.7292-11.0601l.7793-.9282c11.7078,8.671,26.199,13.2389,42.0259,13.2389,41.2095,0,71.1196-31.8285,71.1196-75.6805S122.1777,1.886,80.9683,1.886Zm0,131.01c-10.6617,0-20.4275-3.1575-28.3745-9.1506l5.374-6.4004c2.136-2.5435,5.2661-4.0017,8.5874-4.0017h14.4337v-19.7735h-14.4337c-9.1787,0-17.8278,4.0312-23.7302,11.06l-3.2849,3.9125c-4.9209-8.808-7.4766-19.426-7.4766-30.9794,0-32.5769,20.1099-55.3296,48.9048-55.3296s48.9041,22.7527,48.9041,55.3296-20.1101,55.3332-48.9041,55.3332Z" style="fill: #0d1f23;"/>
  <path d="M241.3398,97.2571c0,22.9633-10.8428,36.6724-29.0054,36.6724-21.2317,0-25.6877-17.2374-25.6877-31.6978V42.5124h-20.7629v60.7566c0,43.4815,27.2842,49.9743,43.5488,49.9743,13.4543,0,24.3911-4.3512,32.575-12.9469l1.8923,11.7036h18.2029V42.5124h-20.7629v54.7448Z" style="fill: #0d1f23;"/>
  <path d="M370.2788,127.5223v-46.2281c0-25.4368-16.1763-40.025-44.3799-40.025-26.6055,0-44.0435,12.9414-46.6458,34.6182l-.252,2.1075h20.6765l.2942-1.5273c1.9622-10.2058,11.345-16.2986,25.0994-16.2986,15.5325,0,24.4409,7.3221,24.4409,20.0898v5.3718h-29.2095c-28.6177,0-44.3782,12.374-44.3782,34.8426,0,19.9069,16.0364,32.77,40.8525,32.77,14.2803,0,25.7117-4.9139,34.052-14.6205,1.7764,9.0988,8.3914,13.3772,20.4685,13.3772h11.2107v-19.3136h-7.2715c-3.8418,0-4.958-.6776-4.958-5.1641Zm-20.7666-20.5238c0,17.2512-12.0659,27.9683-31.49,27.9683-12.8328,0-21.1252-6.0955-21.1252-15.5288,0-10.5893,7.1135-15.7368,21.7468-15.7368h30.8684v3.2974Z" style="fill: #0d1f23;"/>
  <path d="M449.4885,41.2692c-16.9172,0-27.3779,6.5526-33.6086,13.1124l-1.8904-11.8692h-18.2085v109.4876h20.7629v-54.7429c0-22.9642,11.231-36.6743,30.0425-36.6743,17.4819,0,26.7214,10.9607,26.7214,31.6978v59.7193h20.7666v-60.7547c0-43.4833-27.9353-49.9761-44.5859-49.9761Z" style="fill: #0d1f23;"/>
  <path d="M540.9912,122.3398V61.826h27.3613v-19.3137h-27.3613V12.8706h-20.7666v29.6418h-19.0708v19.3137h19.0708v60.7198c0,20.6451,8.8091,29.4541,29.4541,29.4541h20.3325v-19.3136h-18.6736c-8.0256,0-10.3464-2.3209-10.3464-10.3466Z" style="fill: #0d1f23;"/>
  <path d="M597.2441,0c-7.3379,0-12.8696,5.5338-12.8696,12.8715s5.5317,12.8696,12.8696,12.8696,12.8696-5.5328,12.8696-12.8696-5.5317-12.8715-12.8696-12.8715Z" style="fill: #0d1f23;"/>
  <rect x="586.8608" y="42.5124" width="20.7666" height="109.4876" style="fill: #0d1f23;"/>
  <polygon points="672.6506 125.3862 642.4995 43.7427 642.0435 42.5124 619.7744 42.5124 660.7778 152 683.9128 152 724.9163 42.5124 703.0574 42.5124 672.6506 125.3862" style="fill: #0d1f23;"/>
  <path d="M778.7961,41.2692c-30.6458,0-52.0488,23.0231-52.0488,55.988,0,33.4872,21.8333,55.9861,54.3293,55.9861,24.1504,0,43.3867-15.3561,47.8684-38.2118l.4397-2.2454h-20.9541l-.3643,1.4132c-3.2478,12.615-13.802,20.1459-28.2329,20.1459-18.387,0-30.7012-12.5239-31.4773-31.8891h81.9204l.1453-1.725c.1987-2.3475,.4231-5.0077,.4231-7.4628-.8479-32.0739-20.7925-51.9991-52.0488-51.9991Zm-29.1545,43.3243c2.3669-14.1818,14.6409-24.6322,29.3623-24.6322,16.4502,0,27.3816,9.1622,29.6013,24.6322h-58.9636Z" style="fill: #0d1f23;"/>
  <path d="M854.2747,56.1855h-.0002c.4873-.7122,.731-1.5742,.731-2.586,0-.9995-.2375-1.8241-.7119-2.4736-.4624-.6622-1.0247-1.1495-1.6868-1.4617-.6621-.3248-1.2742-.4872-1.8364-.4872h-7.0083v13.8295h3.0359v-4.6848h3.011l2.4231,4.6848h3.3357l-2.8391-5.369c.5967-.3549,1.1152-.8336,1.5461-1.4519Zm-3.3357-.7309c-.4746,.4122-.9185,.6184-1.3306,.6184h-2.8108v-4.6473h2.8857c.3625,0,.781,.1498,1.2556,.4497,.4871,.2998,.7307,.8745,.7307,1.724,0,.8245-.2437,1.4429-.7307,1.8552h0Z" style="fill: #0d1f23;"/>
  <path d="M862.8381,50.4326c-.7744-1.8114-1.8489-3.4043-3.2231-4.7784-1.374-1.3743-2.967-2.4486-4.7783-3.2231-1.8115-.7745-3.7542-1.1617-5.8279-1.1617s-4.0166,.3872-5.8279,1.1617-3.4043,1.8488-4.7786,3.2231c-1.374,1.3741-2.4485,2.967-3.2231,4.7784-.7744,1.8114-1.1616,3.7541-1.1616,5.8278s.3872,4.0164,1.1616,5.8278c.7747,1.8115,1.8491,3.4043,3.2231,4.7784,1.3743,1.3741,2.967,2.4486,4.7786,3.2231,1.8115,.7746,3.7542,1.1618,5.8279,1.1618s4.0164-.3873,5.8279-1.1618c1.8113-.7745,3.4043-1.8489,4.7783-3.2231,1.3743-1.3742,2.4487-2.967,3.2231-4.7784,.7747-1.8114,1.1619-3.754,1.1619-5.8278s-.3872-4.0164-1.1619-5.8278Zm-3.9727,11.5619c-1.0244,1.7241-2.3987,3.0983-4.1223,4.1226-1.7241,1.0244-3.6355,1.5366-5.7341,1.5366s-4.0103-.5123-5.7344-1.5366c-1.7239-1.0244-3.0979-2.3986-4.1223-4.1226-1.0244-1.7239-1.5369-3.6353-1.5369-5.7341s.5125-4.0102,1.5369-5.7343c1.0244-1.7239,2.3984-3.0981,4.1223-4.1225,1.7241-1.0244,3.6355-1.5366,5.7344-1.5366s4.01,.5121,5.7341,1.5366c1.7236,1.0244,3.0981,2.3986,4.1223,4.1225,1.0244,1.7241,1.5366,3.6354,1.5366,5.7343s-.5122,4.0101-1.5366,5.7341Z" style="fill: #0d1f23;"/>
</svg>